<svg width="14" height="12" viewBox="0 0 14 12" fill="none" xmlns="http://www.w3.org/2000/svg">
<path d="M12.9473 6.84705C13.3615 6.84705 13.6973 6.51126 13.6973 6.09705C13.6973 5.68283 13.3615 5.34705 12.9473 5.34705V6.84705ZM1.16987 5.56672C0.876972 5.85961 0.876972 6.33448 1.16987 6.62738L5.94284 11.4003C6.23573 11.6932 6.7106 11.6932 7.0035 11.4003C7.29639 11.1075 7.29639 10.6326 7.0035 10.3397L2.76086 6.09705L7.0035 1.85441C7.29639 1.56151 7.29639 1.08664 7.0035 0.793745C6.7106 0.500852 6.23573 0.500852 5.94284 0.793745L1.16987 5.56672ZM12.9473 5.34705H1.7002V6.84705H12.9473V5.34705Z" fill="#272727"/>
</svg>
