<svg width="25" height="25" viewBox="0 0 25 25" fill="none" xmlns="http://www.w3.org/2000/svg">
<g clip-path="url(#clip0_1_22)">
<path d="M23.3577 21.048C23.3577 21.048 24.8577 21.048 24.8577 19.548C24.8577 18.048 23.3577 13.548 17.3577 13.548C11.3577 13.548 9.85767 18.048 9.85767 19.548C9.85767 21.048 11.3577 21.048 11.3577 21.048H23.3577ZM11.3907 19.548C11.3796 19.5465 11.3686 19.5445 11.3577 19.542C11.3592 19.146 11.6082 17.997 12.4977 16.962C13.3257 15.9915 14.7807 15.048 17.3577 15.048C19.9332 15.048 21.3882 15.993 22.2177 16.962C23.1072 17.997 23.3547 19.1475 23.3577 19.542L23.3457 19.545C23.3387 19.5462 23.3317 19.5472 23.3247 19.548H11.3907ZM17.3577 10.548C18.1533 10.548 18.9164 10.232 19.479 9.66936C20.0416 9.10675 20.3577 8.34368 20.3577 7.54803C20.3577 6.75239 20.0416 5.98932 19.479 5.42671C18.9164 4.86411 18.1533 4.54803 17.3577 4.54803C16.562 4.54803 15.799 4.86411 15.2363 5.42671C14.6737 5.98932 14.3577 6.75239 14.3577 7.54803C14.3577 8.34368 14.6737 9.10675 15.2363 9.66936C15.799 10.232 16.562 10.548 17.3577 10.548ZM21.8577 7.54803C21.8577 8.13898 21.7413 8.72414 21.5151 9.27011C21.289 9.81608 20.9575 10.3122 20.5396 10.73C20.1218 11.1479 19.6257 11.4793 19.0797 11.7055C18.5338 11.9316 17.9486 12.048 17.3577 12.048C16.7667 12.048 16.1816 11.9316 15.6356 11.7055C15.0896 11.4793 14.5935 11.1479 14.1757 10.73C13.7578 10.3122 13.4264 9.81608 13.2002 9.27011C12.9741 8.72414 12.8577 8.13898 12.8577 7.54803C12.8577 6.35456 13.3318 5.20997 14.1757 4.36605C15.0196 3.52214 16.1642 3.04803 17.3577 3.04803C18.5511 3.04803 19.6957 3.52214 20.5396 4.36605C21.3836 5.20997 21.8577 6.35456 21.8577 7.54803ZM11.2617 13.968C10.6616 13.7791 10.0431 13.6549 9.41667 13.5975C9.06466 13.5641 8.71126 13.5475 8.35767 13.548C2.35767 13.548 0.857666 18.048 0.857666 19.548C0.857666 20.5485 1.35717 21.048 2.35767 21.048H8.68167C8.4593 20.5798 8.3484 20.0663 8.35767 19.548C8.35767 18.033 8.92317 16.485 9.99267 15.192C10.3572 14.751 10.7817 14.3385 11.2617 13.968ZM8.23767 15.048C7.3499 16.3819 6.87033 17.9458 6.85767 19.548H2.35767C2.35767 19.158 2.60367 18.003 3.49767 16.962C4.31517 16.008 5.73567 15.078 8.23767 15.0495V15.048ZM3.10767 8.29803C3.10767 7.10456 3.58177 5.95997 4.42569 5.11605C5.2696 4.27214 6.41419 3.79803 7.60767 3.79803C8.80114 3.79803 9.94573 4.27214 10.7896 5.11605C11.6336 5.95997 12.1077 7.10456 12.1077 8.29803C12.1077 9.49151 11.6336 10.6361 10.7896 11.48C9.94573 12.3239 8.80114 12.798 7.60767 12.798C6.41419 12.798 5.2696 12.3239 4.42569 11.48C3.58177 10.6361 3.10767 9.49151 3.10767 8.29803ZM7.60767 5.29803C6.81202 5.29803 6.04895 5.6141 5.48635 6.17671C4.92374 6.73932 4.60767 7.50239 4.60767 8.29803C4.60767 9.09368 4.92374 9.85675 5.48635 10.4194C6.04895 10.982 6.81202 11.298 7.60767 11.298C8.40332 11.298 9.16638 10.982 9.72899 10.4194C10.2916 9.85675 10.6077 9.09368 10.6077 8.29803C10.6077 7.50239 10.2916 6.73932 9.72899 6.17671C9.16638 5.6141 8.40332 5.29803 7.60767 5.29803Z" fill="black"/>
</g>
<defs>
<clipPath id="clip0_1_22">
<rect width="24" height="24" fill="white" transform="translate(0.857666 0.0480347)"/>
</clipPath>
</defs>
</svg>
