<svg width="25" height="25" viewBox="0 0 25 25" fill="none" xmlns="http://www.w3.org/2000/svg">
<path d="M22.5862 6.26929V18.2693C22.5862 18.8193 22.3902 19.2903 21.9982 19.6823C21.6062 20.0743 21.1355 20.27 20.5862 20.2693H4.58618C4.03618 20.2693 3.56518 20.0733 3.17318 19.6813C2.78118 19.2893 2.58552 18.8186 2.58618 18.2693V6.26929C2.58618 5.71929 2.78218 5.24829 3.17418 4.85629C3.56618 4.46429 4.03685 4.26862 4.58618 4.26929H20.5862C21.1362 4.26929 21.6072 4.46529 21.9992 4.85729C22.3912 5.24929 22.5869 5.71996 22.5862 6.26929ZM4.58618 8.26929H20.5862V6.26929H4.58618V8.26929ZM4.58618 12.2693V18.2693H20.5862V12.2693H4.58618Z" fill="black"/>
</svg>
