<svg width="25" height="25" viewBox="0 0 25 25" fill="none" xmlns="http://www.w3.org/2000/svg">
<g clip-path="url(#clip0_1_45)">
<path d="M6.10767 16.548H19.6077V7.50905L13.8072 2.76305C13.5392 2.54396 13.2038 2.42427 12.8577 2.42427C12.5116 2.42427 12.1761 2.54396 11.9082 2.76305L6.10767 7.50905V16.548ZM6.10767 18.048V21.048H19.6077V18.048H6.10767ZM14.7567 1.60205L20.8317 6.57305C20.9178 6.6433 20.9873 6.73183 21.035 6.83223C21.0827 6.93263 21.1076 7.04238 21.1077 7.15355V21.798C21.1077 21.997 21.0286 22.1877 20.888 22.3284C20.7473 22.469 20.5566 22.548 20.3577 22.548H5.35767C5.15875 22.548 4.96799 22.469 4.82734 22.3284C4.68668 22.1877 4.60767 21.997 4.60767 21.798V7.15355C4.60759 7.0425 4.63218 6.93282 4.67965 6.83243C4.72712 6.73205 4.79629 6.64345 4.88217 6.57305L10.9572 1.60205C11.4932 1.16349 12.1644 0.923889 12.8569 0.923889C13.5495 0.923889 14.2207 1.16349 14.7567 1.60205Z" fill="black"/>
<path d="M12.8577 10.548C13.2555 10.548 13.637 10.39 13.9183 10.1087C14.1996 9.82739 14.3577 9.44586 14.3577 9.04803C14.3577 8.65021 14.1996 8.26868 13.9183 7.98737C13.637 7.70607 13.2555 7.54803 12.8577 7.54803C12.4598 7.54803 12.0783 7.70607 11.797 7.98737C11.5157 8.26868 11.3577 8.65021 11.3577 9.04803C11.3577 9.44586 11.5157 9.82739 11.797 10.1087C12.0783 10.39 12.4598 10.548 12.8577 10.548ZM12.8577 12.048C12.062 12.048 11.299 11.732 10.7363 11.1694C10.1737 10.6067 9.85767 9.84368 9.85767 9.04803C9.85767 8.25239 10.1737 7.48932 10.7363 6.92671C11.299 6.36411 12.062 6.04803 12.8577 6.04803C13.6533 6.04803 14.4164 6.36411 14.979 6.92671C15.5416 7.48932 15.8577 8.25239 15.8577 9.04803C15.8577 9.84368 15.5416 10.6067 14.979 11.1694C14.4164 11.732 13.6533 12.048 12.8577 12.048Z" fill="black"/>
</g>
<defs>
<clipPath id="clip0_1_45">
<rect width="24" height="24" fill="white" transform="translate(0.857666 0.0480347)"/>
</clipPath>
</defs>
</svg>
