<svg width="25" height="25" viewBox="0 0 25 25" fill="none" xmlns="http://www.w3.org/2000/svg">
<path d="M3.58618 8.26929C3.58618 7.47364 3.90225 6.71058 4.46486 6.14797C5.02747 5.58536 5.79053 5.26929 6.58618 5.26929H18.5862C19.3818 5.26929 20.1449 5.58536 20.7075 6.14797C21.2701 6.71058 21.5862 7.47364 21.5862 8.26929V16.2693C21.5862 17.0649 21.2701 17.828 20.7075 18.3906C20.1449 18.9532 19.3818 19.2693 18.5862 19.2693H6.58618C5.79053 19.2693 5.02747 18.9532 4.46486 18.3906C3.90225 17.828 3.58618 17.0649 3.58618 16.2693V8.26929Z" stroke="black" stroke-width="2" stroke-linecap="round" stroke-linejoin="round"/>
<path d="M7.58618 16.2693L10.5862 13.2693M10.5862 13.2693L13.5862 16.2693M10.5862 13.2693C10.1632 11.4393 9.21418 10.2493 8.08618 10.2693C7.29718 10.2693 6.58618 10.9413 6.58618 11.7693C6.58618 12.5973 7.79718 13.2693 8.58618 13.2693H12.5862C13.3752 13.2693 14.5862 12.5973 14.5862 11.7693C14.5862 10.9413 13.8752 10.2693 13.0862 10.2693C11.9582 10.2493 11.0092 11.4393 10.5862 13.2693Z" stroke="black" stroke-width="2" stroke-linecap="round" stroke-linejoin="round"/>
</svg>
