<svg width="25" height="25" viewBox="0 0 25 25" fill="none" xmlns="http://www.w3.org/2000/svg">
<path d="M2.85767 12.252C2.85767 9.96304 2.85767 8.81903 3.37767 7.87103C3.89567 6.92203 4.84467 6.33403 6.74167 5.15603L8.74167 3.91503C10.7467 2.67003 11.7497 2.04803 12.8577 2.04803C13.9657 2.04803 14.9677 2.67003 16.9737 3.91503L18.9737 5.15603C20.8707 6.33403 21.8197 6.92203 22.3387 7.87103C22.8577 8.81903 22.8577 9.96303 22.8577 12.251V13.773C22.8577 17.673 22.8577 19.624 21.6857 20.836C20.5147 22.048 18.6287 22.048 14.8577 22.048H10.8577C7.08667 22.048 5.20067 22.048 4.02967 20.836C2.85767 19.624 2.85767 17.674 2.85767 13.773V12.252Z" stroke="black" stroke-width="1.5"/>
<path d="M12.8577 15.048V18.048" stroke="black" stroke-width="1.5" stroke-linecap="round"/>
</svg>
