<svg width="92" height="41" viewBox="0 0 92 41" fill="none" xmlns="http://www.w3.org/2000/svg">
<path fill-rule="evenodd" clip-rule="evenodd" d="M40.8577 20.2602C40.8577 31.3059 31.9034 40.2602 20.8577 40.2602C13.2781 40.2602 6.68338 36.0439 3.29084 29.8288H27.6152V23.4099L1.10426 23.4098C0.941953 22.3838 0.857666 21.3319 0.857666 20.2602C0.857666 9.2145 9.81197 0.260193 20.8577 0.260193C28.6661 0.260193 35.4295 4.73504 38.7231 11.2602L11.996 11.2602V17.6791H40.6927C40.8015 18.5241 40.8577 19.3856 40.8577 20.2602Z" fill="#5ECB75"/>
<path d="M53.9124 25.9555C56.7561 25.9555 58.4592 24.5805 58.4592 22.4164V22.4086C58.4592 20.6352 57.3967 19.6743 55.0374 19.2055L53.842 18.9633C52.5452 18.7055 51.967 18.2914 51.967 17.5805V17.5727C51.967 16.768 52.6936 16.2133 53.9045 16.2055C55.0686 16.2055 55.8811 16.7446 55.9983 17.6274L56.0061 17.7211H58.2327L58.2249 17.5727C58.1155 15.5961 56.5139 14.2914 53.9045 14.2914C51.4045 14.2914 49.6077 15.6508 49.6077 17.7133V17.7211C49.6077 19.4164 50.7327 20.4789 52.9592 20.9243L54.1467 21.1586C55.5452 21.4477 56.0999 21.8305 56.0999 22.5961V22.6039C56.0999 23.4633 55.2795 24.0336 53.9749 24.0336C52.6858 24.0336 51.7561 23.4868 51.6077 22.6118L51.592 22.5258H49.3655L49.3733 22.6508C49.5061 24.7289 51.2327 25.9555 53.9124 25.9555ZM63.3617 25.9321C65.7524 25.9321 66.9086 24.518 67.1664 23.2836L67.1899 23.1977H65.0961L65.0805 23.2446C64.9164 23.7133 64.3461 24.2289 63.4086 24.2289C62.2445 24.2289 61.518 23.4477 61.4945 22.1118H67.2602V21.4086C67.2602 18.8774 65.7211 17.2133 63.268 17.2133C60.8149 17.2133 59.2445 18.9164 59.2445 21.5805V21.5883C59.2445 24.268 60.7992 25.9321 63.3617 25.9321ZM63.307 18.9164C64.2524 18.9164 64.932 19.518 65.0727 20.6743H61.518C61.6664 19.5414 62.3695 18.9164 63.307 18.9164ZM68.3345 25.7602H70.6158V14.4868H68.3345V25.7602ZM72.0495 25.7602H74.3308V14.4868H72.0495V25.7602ZM78.202 25.893C79.3036 25.893 80.1942 25.3696 80.6708 24.5102H80.7177V25.7602H82.9989V20.018C82.9989 18.3305 81.6005 17.2133 79.4364 17.2133C77.2255 17.2133 75.8974 18.3227 75.7724 19.8696L75.7645 19.9633H77.8505L77.8661 19.893C77.9755 19.3539 78.4911 18.9555 79.3427 18.9555C80.2333 18.9555 80.7177 19.4164 80.7177 20.1586V20.6743L78.6474 20.7993C76.5692 20.9321 75.3895 21.8227 75.3895 23.3461V23.3618C75.3895 24.8383 76.5224 25.893 78.202 25.893ZM77.6474 23.2446V23.2289C77.6474 22.6352 78.1083 22.2602 78.9911 22.2055L80.7177 22.0961V22.6977C80.7177 23.5727 79.9677 24.2289 78.9442 24.2289C78.1552 24.2289 77.6474 23.8618 77.6474 23.2446ZM84.1124 25.7602H91.0264V24.0414H86.9717V23.9946L90.9327 18.8305V17.3852H84.1749V19.1039H88.3233V19.143L84.1124 24.4633V25.7602Z" fill="#272727"/>
</svg>
