<svg width="25" height="25" viewBox="0 0 25 25" fill="none" xmlns="http://www.w3.org/2000/svg">
<path d="M20.3577 22.548H5.35767C4.95984 22.548 4.57831 22.39 4.29701 22.1087C4.0157 21.8274 3.85767 21.4459 3.85767 21.048V12.048C3.85767 11.6502 4.0157 11.2687 4.29701 10.9874C4.57831 10.7061 4.95984 10.548 5.35767 10.548H7.60767V12.048H5.35767V21.048H20.3577V12.048H18.1077V10.548H20.3577C20.7555 10.548 21.137 10.7061 21.4183 10.9874C21.6996 11.2687 21.8577 11.6502 21.8577 12.048V21.048C21.8577 21.4459 21.6996 21.8274 21.4183 22.1087C21.137 22.39 20.7555 22.548 20.3577 22.548Z" fill="black"/>
<path d="M10.6077 15.048H15.1077V16.548H10.6077V15.048ZM16.3002 6.49053L13.6077 9.17553V1.54803H12.1077V9.17553L9.41517 6.49053L8.35767 7.54803L12.8577 12.048L17.3577 7.54803L16.3002 6.49053Z" fill="black"/>
</svg>
