<svg width="25" height="25" viewBox="0 0 25 25" fill="none" xmlns="http://www.w3.org/2000/svg">
<path d="M21.8277 6.2496L13.5777 1.73554C13.3572 1.61374 13.1095 1.54985 12.8577 1.54985C12.6058 1.54985 12.3581 1.61374 12.1377 1.73554L3.88767 6.25147C3.65206 6.38038 3.45539 6.57019 3.31818 6.80106C3.18098 7.03193 3.10828 7.29541 3.10767 7.56397V16.5302C3.10828 16.7988 3.18098 17.0623 3.31818 17.2931C3.45539 17.524 3.65206 17.7138 3.88767 17.8427L12.1377 22.3587C12.3581 22.4805 12.6058 22.5443 12.8577 22.5443C13.1095 22.5443 13.3572 22.4805 13.5777 22.3587L21.8277 17.8427C22.0633 17.7138 22.2599 17.524 22.3971 17.2931C22.5344 17.0623 22.6071 16.7988 22.6077 16.5302V7.56491C22.6076 7.29587 22.5351 7.03181 22.3979 6.80039C22.2606 6.56898 22.0637 6.37874 21.8277 6.2496ZM12.8577 3.04804L20.3905 7.17304L17.5986 8.70022L10.0658 4.57522L12.8577 3.04804ZM12.8577 11.298L5.32485 7.17304L8.50392 5.4321L16.0367 9.5571L12.8577 11.298ZM21.1077 16.534L13.6077 20.6393V12.5946L16.6077 10.953V14.298C16.6077 14.4969 16.6867 14.6877 16.8273 14.8284C16.968 14.969 17.1588 15.048 17.3577 15.048C17.5566 15.048 17.7473 14.969 17.888 14.8284C18.0286 14.6877 18.1077 14.4969 18.1077 14.298V10.1318L21.1077 8.49022V16.5302V16.534Z" fill="#5ECB75"/>
</svg>
