<svg width="25" height="25" viewBox="0 0 25 25" fill="none" xmlns="http://www.w3.org/2000/svg">
<path d="M10.3577 19.798C10.5566 19.798 10.7473 19.719 10.888 19.5784C11.0286 19.4377 11.1077 19.2469 11.1077 19.048C11.1077 18.8491 11.0286 18.6584 10.888 18.5177C10.7473 18.3771 10.5566 18.298 10.3577 18.298V19.798ZM11.8577 5.04803V5.79803C12.0059 5.7979 12.1508 5.75385 12.274 5.67143C12.3972 5.58901 12.4932 5.47192 12.55 5.33496C12.6067 5.19799 12.6215 5.0473 12.5926 4.9019C12.5637 4.7565 12.4924 4.62292 12.3877 4.51803L11.8577 5.04803ZM10.3877 2.51803C10.2455 2.38555 10.0574 2.31343 9.86314 2.31686C9.66884 2.32029 9.48346 2.399 9.34604 2.53641C9.20863 2.67383 9.12992 2.85921 9.12649 3.05351C9.12306 3.24781 9.19519 3.43586 9.32767 3.57803L10.3877 2.51803ZM10.3577 18.298H9.85767V19.798H10.3577V18.298ZM9.85767 5.79803H11.8577V4.29803H9.85767V5.79803ZM12.3877 4.51803L10.3877 2.51803L9.32767 3.57803L11.3277 5.57803L12.3877 4.51803ZM2.10767 12.048C2.10767 14.1035 2.92418 16.0747 4.37759 17.5281C5.831 18.9815 7.80224 19.798 9.85767 19.798V18.298C8.20006 18.298 6.61035 17.6396 5.43825 16.4675C4.26615 15.2954 3.60767 13.7056 3.60767 12.048H2.10767ZM3.60767 12.048C3.60767 10.3904 4.26615 8.80072 5.43825 7.62862C6.61035 6.45651 8.20006 5.79803 9.85767 5.79803V4.29803C7.80224 4.29803 5.831 5.11455 4.37759 6.56796C2.92418 8.02136 2.10767 9.99261 2.10767 12.048H3.60767ZM13.8577 19.048V18.298C13.7094 18.2982 13.5645 18.3422 13.4413 18.4246C13.3181 18.5071 13.2221 18.6241 13.1654 18.7611C13.1087 18.8981 13.0938 19.0488 13.1227 19.1942C13.1516 19.3396 13.2229 19.4731 13.3277 19.578L13.8577 19.048ZM15.3277 21.578C15.3963 21.6517 15.4791 21.7108 15.5711 21.7518C15.6631 21.7928 15.7624 21.8148 15.8631 21.8166C15.9638 21.8184 16.0639 21.7999 16.1573 21.7622C16.2507 21.7244 16.3355 21.6683 16.4067 21.5971C16.4779 21.5259 16.5341 21.441 16.5718 21.3476C16.6095 21.2542 16.628 21.1542 16.6263 21.0535C16.6245 20.9528 16.6024 20.8535 16.5614 20.7615C16.5205 20.6695 16.4614 20.5867 16.3877 20.518L15.3277 21.578ZM15.3577 4.29803C15.1588 4.29803 14.968 4.37705 14.8273 4.5177C14.6867 4.65836 14.6077 4.84912 14.6077 5.04803C14.6077 5.24695 14.6867 5.43771 14.8273 5.57836C14.968 5.71902 15.1588 5.79803 15.3577 5.79803V4.29803ZM15.8577 18.298H13.8577V19.798H15.8577V18.298ZM13.3277 19.578L15.3277 21.578L16.3877 20.518L14.3877 18.518L13.3277 19.578ZM15.3577 5.79803H15.8577V4.29803H15.3577V5.79803ZM22.1077 12.048C22.1077 13.7056 21.4492 15.2954 20.2771 16.4675C19.105 17.6396 17.5153 18.298 15.8577 18.298V19.798C17.9131 19.798 19.8843 18.9815 21.3377 17.5281C22.7912 16.0747 23.6077 14.1035 23.6077 12.048H22.1077ZM23.6077 12.048C23.6077 9.99261 22.7912 8.02136 21.3377 6.56796C19.8843 5.11455 17.9131 4.29803 15.8577 4.29803V5.79803C17.5153 5.79803 19.105 6.45651 20.2771 7.62862C21.4492 8.80072 22.1077 10.3904 22.1077 12.048H23.6077Z" fill="black"/>
</svg>
