<svg width="25" height="25" viewBox="0 0 25 25" fill="none" xmlns="http://www.w3.org/2000/svg">
<path d="M22.234 16.3943C22.3331 16.5662 22.36 16.7703 22.3088 16.962C22.2577 17.1537 22.1327 17.3174 21.9612 17.4171L12.9612 22.6671C12.8465 22.734 12.7161 22.7692 12.5834 22.7692C12.4506 22.7692 12.3202 22.734 12.2056 22.6671L3.20556 17.4171C3.03652 17.3155 2.91429 17.1515 2.86534 16.9604C2.81638 16.7694 2.84464 16.5668 2.94399 16.3964C3.04335 16.226 3.2058 16.1017 3.39618 16.0502C3.58656 15.9988 3.78954 16.0244 3.96118 16.1215L12.5862 21.1512L21.2112 16.1215C21.3831 16.0224 21.5872 15.9955 21.7789 16.0466C21.9706 16.0978 22.1343 16.2228 22.234 16.3943ZM21.2112 11.6215L12.5862 16.6512L3.96118 11.6215C3.79041 11.5365 3.59366 11.5197 3.41097 11.5746C3.22828 11.6295 3.07338 11.752 2.97781 11.9171C2.88224 12.0822 2.85317 12.2775 2.89653 12.4633C2.93988 12.6491 3.0524 12.8114 3.21118 12.9171L12.2112 18.1671C12.3259 18.234 12.4562 18.2692 12.589 18.2692C12.7217 18.2692 12.8521 18.234 12.9668 18.1671L21.9668 12.9171C22.0532 12.8682 22.1291 12.8026 22.19 12.7241C22.2509 12.6457 22.2956 12.5559 22.3215 12.46C22.3474 12.3641 22.354 12.2641 22.341 12.1656C22.3279 12.0672 22.2954 11.9723 22.2454 11.8865C22.1953 11.8007 22.1287 11.7257 22.0495 11.6658C21.9702 11.606 21.8799 11.5625 21.7837 11.5378C21.6875 11.5132 21.5873 11.5079 21.489 11.5222C21.3908 11.5366 21.2963 11.5703 21.2112 11.6215ZM2.83618 7.76929C2.83648 7.63793 2.87128 7.50895 2.93709 7.39526C3.0029 7.28157 3.09742 7.18716 3.21118 7.12148L12.2112 1.87148C12.3259 1.8046 12.4562 1.76936 12.589 1.76936C12.7217 1.76936 12.8521 1.8046 12.9668 1.87148L21.9668 7.12148C22.08 7.18753 22.174 7.2821 22.2392 7.39576C22.3045 7.50943 22.3389 7.63821 22.3389 7.76929C22.3389 7.90036 22.3045 8.02915 22.2392 8.14282C22.174 8.25648 22.08 8.35105 21.9668 8.4171L12.9668 13.6671C12.8521 13.734 12.7217 13.7692 12.589 13.7692C12.4562 13.7692 12.3259 13.734 12.2112 13.6671L3.21118 8.4171C3.09742 8.35142 3.0029 8.25701 2.93709 8.14332C2.87128 8.02963 2.83648 7.90065 2.83618 7.76929ZM5.07493 7.76929L12.5862 12.1512L20.0974 7.76929L12.5862 3.38741L5.07493 7.76929Z" fill="black"/>
</svg>
